<svg width="29" height="37" viewBox="0 0 400 510" xmlns="http://www.w3.org/2000/svg" ><g id="svgg"><path id="path0" d="M53.510 46.433 C 49.617 47.004,47.624 48.540,46.798 51.607 C 46.527 52.614,46.431 114.546,46.506 239.055 L 46.620 425.000 47.484 428.463 C 48.566 432.793,49.679 434.998,52.703 438.800 C 54.016 440.450,56.091 443.420,57.315 445.400 C 59.982 449.715,61.461 451.182,66.200 454.206 C 68.180 455.470,71.145 457.584,72.789 458.904 C 79.916 464.629,82.831 464.933,128.200 464.691 C 164.450 464.498,166.055 464.360,170.096 461.082 C 172.311 459.286,172.179 463.099,172.434 393.200 C 172.612 344.471,172.787 328.482,173.162 326.850 C 174.660 320.313,178.065 316.455,184.000 314.569 C 185.934 313.955,188.928 313.835,208.800 313.575 C 242.255 313.137,248.591 312.332,258.800 307.218 C 264.272 304.478,269.026 302.657,275.615 300.778 C 282.977 298.679,285.439 297.457,289.400 293.937 C 291.160 292.374,294.670 289.744,297.200 288.093 C 303.708 283.848,305.589 282.309,310.836 276.942 C 323.253 264.239,325.420 261.732,327.879 257.218 C 331.070 251.361,332.496 249.162,335.048 246.159 C 338.663 241.904,339.659 239.589,341.811 230.428 C 344.192 220.295,346.147 214.186,348.988 208.000 C 356.233 192.227,356.016 173.430,348.380 155.511 C 345.450 148.634,344.440 145.439,342.654 137.399 C 340.353 127.048,338.962 123.764,334.181 117.400 C 332.353 114.966,330.157 111.328,328.572 108.108 C 326.113 103.112,325.752 102.607,322.146 99.108 C 320.045 97.068,317.037 93.706,315.463 91.636 C 313.410 88.937,311.592 87.098,309.038 85.140 C 307.079 83.638,303.749 80.638,301.638 78.474 C 298.111 74.859,297.420 74.352,293.113 72.215 C 290.059 70.700,287.132 68.850,284.713 66.904 C 278.853 62.191,274.647 60.361,264.200 57.981 C 257.686 56.498,253.686 55.151,246.904 52.159 C 237.759 48.124,231.877 46.923,218.650 46.388 C 207.511 45.938,56.610 45.979,53.510 46.433 M235.200 68.921 C 241.161 69.895,244.555 70.905,249.701 73.236 C 252.175 74.356,258.472 76.687,263.694 78.416 C 274.551 82.010,275.410 82.447,280.167 86.792 C 282.087 88.546,285.220 90.917,287.129 92.061 C 291.951 94.949,305.755 108.679,308.382 113.200 C 310.252 116.417,313.236 120.376,315.017 122.000 C 317.613 124.368,319.152 127.558,322.046 136.571 C 323.613 141.450,325.950 147.696,327.271 150.532 C 332.063 160.820,333.005 166.076,332.987 182.400 C 332.969 199.140,332.052 204.032,326.620 216.356 C 325.010 220.010,322.972 225.250,322.092 228.000 C 319.091 237.380,318.389 238.695,312.600 245.800 C 310.807 248.000,308.286 251.330,306.997 253.200 C 303.312 258.549,301.384 260.631,297.147 263.840 C 294.975 265.485,291.497 268.429,289.418 270.383 C 283.909 275.560,280.001 277.969,273.800 280.009 C 268.794 281.656,265.879 283.028,261.346 285.870 C 255.327 289.645,250.104 291.312,240.702 292.457 C 238.371 292.741,223.151 293.010,199.600 293.183 C 175.168 293.362,161.776 293.604,160.977 293.879 C 157.883 294.944,156.326 296.215,154.947 298.800 C 154.230 300.144,154.191 302.656,153.972 361.200 C 153.804 406.271,153.620 422.722,153.268 424.200 C 150.643 435.235,147.128 439.120,137.403 441.738 C 134.300 442.573,133.491 442.600,111.400 442.600 L 88.600 442.600 85.728 441.549 C 79.671 439.333,72.999 433.485,70.244 427.978 C 67.337 422.168,67.567 437.881,67.690 253.400 L 67.800 87.400 68.688 84.282 C 71.560 74.199,75.694 70.651,86.980 68.579 C 91.842 67.687,229.591 68.004,235.200 68.921 M163.334 144.023 C 154.763 145.140,154.417 146.699,154.407 184.280 C 154.396 223.559,151.499 220.404,187.573 220.392 C 218.870 220.381,226.020 219.702,236.517 215.742 C 241.103 214.012,244.154 210.247,251.051 197.800 C 256.250 188.419,256.163 177.488,250.816 168.200 C 249.549 166.000,247.830 162.952,246.995 161.426 C 245.077 157.918,242.796 155.701,238.488 153.157 C 236.615 152.050,233.804 150.283,232.241 149.230 C 226.495 145.357,223.814 144.635,212.800 143.995 C 204.971 143.540,166.875 143.561,163.334 144.023 M217.386 164.144 C 224.215 166.122,229.977 170.904,233.116 177.200 C 238.353 187.703,235.382 192.923,220.742 198.943 C 210.384 203.202,187.930 203.119,181.195 198.796 C 170.633 192.019,170.591 171.882,181.125 165.705 C 185.538 163.117,210.178 162.056,217.386 164.144 " stroke="none" fill="#5289fc" fill-rule="evenodd"></path><path id="path1" d="M50.089 41.219 C 45.392 42.162,42.373 45.204,41.372 50.005 C 40.556 53.920,40.732 425.362,41.552 430.800 C 43.126 441.226,50.505 451.685,63.536 461.963 C 73.775 470.038,71.941 469.800,124.000 469.800 C 173.199 469.800,173.906 469.729,177.241 464.471 C 179.469 460.958,179.349 464.439,179.606 395.600 C 179.865 326.115,179.797 328.164,181.960 324.664 C 184.929 319.861,184.910 319.864,210.000 319.543 C 248.495 319.050,259.921 317.470,271.600 311.024 C 278.113 307.430,278.856 307.082,284.347 305.052 C 290.848 302.648,293.545 301.083,299.565 296.223 C 302.334 293.988,306.547 290.837,308.928 289.222 C 312.296 286.935,313.991 285.430,316.577 282.427 C 318.404 280.305,320.776 277.767,321.849 276.787 C 327.131 271.960,329.094 269.624,332.200 264.463 C 333.960 261.538,336.827 257.223,338.570 254.873 C 342.954 248.964,344.365 246.109,346.999 237.811 C 348.254 233.858,350.587 227.648,352.184 224.011 C 362.918 199.573,362.848 164.018,352.020 140.435 C 349.293 134.497,348.979 133.653,346.579 125.800 C 344.258 118.210,342.594 114.739,339.530 111.097 C 336.799 107.850,335.486 105.910,332.291 100.400 C 329.562 95.694,320.577 85.652,311.568 77.241 C 305.546 71.617,303.112 69.767,297.400 66.470 C 295.860 65.581,293.025 63.521,291.101 61.891 C 286.410 57.919,285.057 57.245,274.874 53.816 C 269.978 52.167,264.204 49.906,261.761 48.681 C 253.783 44.680,248.076 43.091,236.800 41.733 C 230.393 40.961,53.795 40.474,50.089 41.219 M226.800 42.805 C 241.339 43.682,247.842 45.175,258.600 50.103 C 263.918 52.539,265.484 53.112,274.200 55.809 C 282.065 58.242,285.102 59.751,289.000 63.164 C 290.760 64.705,294.090 67.049,296.400 68.373 C 302.202 71.697,301.995 71.540,308.827 77.801 C 315.833 84.220,316.481 84.862,319.544 88.400 C 320.781 89.830,323.420 92.730,325.406 94.844 C 328.200 97.817,329.606 99.753,331.609 103.389 C 333.034 105.975,335.589 109.825,337.287 111.945 C 341.785 117.562,342.262 118.651,346.989 134.108 C 347.781 136.698,349.672 141.738,351.192 145.308 C 360.651 167.533,360.737 197.482,351.401 219.000 C 349.007 224.520,347.122 229.878,344.816 237.718 C 342.836 244.452,341.723 246.700,337.936 251.620 C 336.319 253.721,333.287 258.302,331.198 261.800 C 327.635 267.766,327.041 268.521,321.600 273.999 C 318.410 277.211,314.630 281.107,313.200 282.657 C 311.707 284.276,308.983 286.552,306.800 288.006 C 304.710 289.398,301.581 291.631,299.847 292.968 C 291.730 299.227,290.420 300.143,287.800 301.390 C 286.260 302.123,283.110 303.383,280.800 304.190 C 278.490 304.997,273.900 307.018,270.600 308.682 C 255.795 316.144,249.626 317.078,211.800 317.583 C 184.116 317.953,183.283 318.104,180.244 323.289 C 177.731 327.578,177.869 323.791,177.624 394.800 L 177.400 459.400 176.480 461.395 C 173.334 468.221,172.117 468.384,124.200 468.393 C 73.436 468.402,76.260 468.871,62.580 458.163 C 57.035 453.822,56.333 453.072,50.442 445.214 C 44.580 437.392,43.608 434.722,42.792 424.200 C 42.486 420.253,42.394 364.295,42.479 234.600 L 42.600 50.600 43.520 48.605 C 45.050 45.285,47.288 43.539,50.937 42.817 C 53.384 42.333,218.789 42.322,226.800 42.805 M89.717 74.595 C 81.377 76.435,75.572 82.323,73.813 90.726 C 72.956 94.818,72.899 415.066,73.754 419.050 C 75.245 425.994,83.520 434.376,90.693 436.206 C 95.270 437.375,131.017 436.908,134.200 435.638 C 140.521 433.117,144.913 428.690,146.905 422.833 L 147.800 420.200 148.000 359.800 C 148.216 294.554,148.074 298.522,150.312 295.114 C 151.829 292.804,154.873 290.770,158.600 289.577 C 159.820 289.187,168.474 288.998,195.000 288.782 C 240.519 288.410,240.741 288.386,254.844 282.191 C 258.498 280.585,263.988 278.425,267.044 277.391 C 274.627 274.824,275.860 274.099,284.800 266.957 C 297.775 256.590,300.016 254.313,305.987 245.424 C 307.474 243.211,309.980 239.780,311.557 237.800 C 315.686 232.616,316.617 230.337,321.199 214.200 C 328.978 186.807,329.251 176.983,322.797 156.600 C 321.961 153.960,320.619 149.280,319.815 146.200 C 316.462 133.362,315.054 130.304,309.714 124.255 C 308.769 123.185,306.791 120.309,305.317 117.863 C 302.714 113.542,301.619 112.270,295.783 106.784 C 294.252 105.345,291.740 102.808,290.200 101.146 C 288.180 98.966,286.244 97.419,283.250 95.593 C 280.967 94.200,277.552 91.735,275.662 90.115 C 270.100 85.350,267.607 84.276,253.400 80.524 C 248.780 79.304,243.020 77.777,240.600 77.131 C 228.969 74.028,235.495 74.268,159.800 74.151 C 103.758 74.065,91.775 74.141,89.717 74.595 M229.000 77.722 C 239.766 79.482,258.076 83.610,263.131 85.417 C 267.715 87.055,269.953 88.382,274.451 92.128 C 276.350 93.709,279.500 95.894,281.451 96.985 C 284.884 98.902,287.559 101.247,292.423 106.600 C 293.423 107.700,295.852 110.060,297.820 111.844 C 300.864 114.602,301.748 115.710,303.723 119.244 C 305.000 121.530,306.938 124.480,308.030 125.800 C 313.197 132.047,315.243 136.224,317.334 144.800 C 326.521 182.475,326.525 182.605,318.983 213.491 C 315.487 227.806,314.540 230.293,310.836 234.872 C 309.332 236.731,306.503 240.671,304.551 243.626 C 300.015 250.490,293.228 257.580,285.601 263.419 C 282.631 265.694,278.961 268.565,277.447 269.798 C 273.817 272.757,271.401 273.923,264.200 276.195 C 260.900 277.236,255.017 279.327,251.127 280.842 C 237.036 286.329,232.287 286.776,187.973 286.791 C 153.935 286.803,151.064 287.444,146.528 296.058 L 145.400 298.200 145.184 358.600 C 144.989 413.055,144.903 419.183,144.315 420.859 C 141.957 427.582,136.221 432.497,129.451 433.596 C 126.230 434.119,95.554 434.120,92.755 433.598 C 84.852 432.123,77.263 424.199,76.343 416.462 C 76.128 414.654,76.024 347.544,76.089 252.600 L 76.200 91.800 77.076 89.507 C 79.617 82.856,85.601 78.135,92.695 77.187 C 97.744 76.512,224.646 77.010,229.000 77.722 M160.000 138.026 C 155.558 138.690,151.392 140.824,149.374 143.469 C 146.221 147.604,145.920 151.553,146.090 186.600 L 146.220 213.400 147.143 216.000 C 149.259 221.962,153.600 227.123,158.000 228.908 L 160.200 229.800 187.400 229.800 C 220.635 229.800,219.392 229.965,236.400 223.293 C 245.160 219.856,246.547 218.857,250.431 213.186 C 251.739 211.276,253.738 208.653,254.873 207.357 C 259.217 202.395,260.721 198.948,261.604 191.930 C 262.276 186.593,261.935 173.807,261.036 170.600 C 257.390 157.606,240.887 141.627,228.398 139.000 C 222.370 137.732,167.223 136.947,160.000 138.026 M221.400 140.010 C 231.249 140.929,238.311 144.634,247.231 153.564 C 256.678 163.021,259.980 170.570,259.993 182.737 C 260.005 194.022,258.665 198.681,253.531 205.200 C 251.886 207.290,249.707 210.296,248.690 211.880 C 245.085 217.497,243.029 218.831,232.566 222.343 C 219.734 226.650,214.608 227.179,185.600 227.189 C 159.567 227.197,158.714 227.076,154.392 222.754 C 149.025 217.387,148.804 215.841,148.816 183.800 C 148.832 145.611,149.175 143.811,157.024 140.804 C 161.005 139.279,207.421 138.707,221.400 140.010 M187.259 169.150 C 179.086 172.033,175.573 185.313,181.272 191.787 C 185.045 196.073,191.844 197.124,208.600 196.011 C 218.893 195.327,227.320 191.133,228.223 186.243 C 229.106 181.462,222.021 172.109,215.526 169.483 C 212.392 168.216,190.633 167.960,187.259 169.150 M211.405 171.235 C 216.238 172.128,220.146 175.153,223.333 180.467 C 226.884 186.389,223.078 191.459,213.600 193.430 C 209.698 194.241,189.513 194.066,187.090 193.199 C 177.389 189.732,179.394 173.359,189.800 171.069 C 191.531 170.688,209.181 170.824,211.405 171.235 " stroke="none" fill="#a8c4fc" fill-rule="evenodd"></path><path id="path2" d="M51.600 37.980 C 43.992 38.714,40.214 41.567,38.614 47.784 C 37.903 50.543,37.684 422.805,38.388 430.606 C 39.505 442.982,41.607 446.920,53.347 458.641 C 65.326 470.601,68.281 471.892,85.857 472.834 C 96.975 473.431,164.504 473.087,169.192 472.410 C 176.665 471.331,180.022 468.895,182.143 463.011 C 182.448 462.166,182.655 442.687,182.828 398.600 C 183.009 352.432,183.204 334.753,183.549 333.000 C 185.460 323.321,184.949 323.508,210.400 323.159 C 250.318 322.611,266.764 320.152,277.644 313.105 C 282.420 310.011,283.567 309.444,290.400 306.792 C 296.201 304.541,299.590 302.426,303.808 298.424 C 305.792 296.541,309.523 293.596,312.100 291.880 C 315.593 289.553,317.219 288.180,318.492 286.480 C 320.421 283.905,325.023 279.206,328.602 276.157 C 330.410 274.617,331.681 272.974,333.769 269.482 C 335.292 266.934,338.262 262.701,340.369 260.076 C 344.920 254.406,346.295 251.777,348.889 243.800 C 350.282 239.515,351.807 235.947,354.226 231.316 C 360.707 218.910,362.240 210.870,362.675 187.000 C 363.168 159.961,361.438 148.310,355.016 135.400 C 352.420 130.182,350.476 125.557,348.813 120.646 C 345.937 112.150,345.216 110.744,341.599 106.577 C 340.083 104.830,338.003 101.960,336.978 100.200 C 332.342 92.241,330.865 90.435,320.415 79.947 C 309.758 69.250,310.320 69.709,299.328 62.720 C 298.047 61.906,295.769 60.165,294.265 58.851 C 291.052 56.046,287.647 54.196,282.400 52.405 C 276.090 50.253,273.040 48.939,266.066 45.369 C 257.054 40.756,252.568 39.702,236.200 38.351 C 229.843 37.827,56.794 37.479,51.600 37.980 M236.800 41.733 C 248.076 43.091,253.783 44.680,261.761 48.681 C 264.204 49.906,269.978 52.167,274.874 53.816 C 285.057 57.245,286.410 57.919,291.101 61.891 C 293.025 63.521,295.860 65.581,297.400 66.470 C 303.112 69.767,305.546 71.617,311.568 77.241 C 320.577 85.652,329.562 95.694,332.291 100.400 C 335.486 105.910,336.799 107.850,339.530 111.097 C 342.594 114.739,344.258 118.210,346.579 125.800 C 348.979 133.653,349.293 134.497,352.020 140.435 C 358.485 154.516,360.782 169.788,359.614 190.930 C 358.761 206.362,357.532 211.836,352.184 224.011 C 350.587 227.648,348.254 233.858,346.999 237.811 C 344.365 246.109,342.954 248.964,338.570 254.873 C 336.827 257.223,333.960 261.538,332.200 264.463 C 329.094 269.624,327.131 271.960,321.849 276.787 C 320.776 277.767,318.404 280.305,316.577 282.427 C 313.991 285.430,312.296 286.935,308.928 289.222 C 306.547 290.837,302.334 293.988,299.565 296.223 C 293.545 301.083,290.848 302.648,284.347 305.052 C 278.856 307.082,278.113 307.430,271.600 311.024 C 259.921 317.470,248.495 319.050,210.000 319.543 C 184.910 319.864,184.929 319.861,181.960 324.664 C 179.797 328.164,179.865 326.115,179.606 395.600 C 179.349 464.439,179.469 460.958,177.241 464.471 C 173.906 469.729,173.199 469.800,124.000 469.800 C 71.941 469.800,73.775 470.038,63.536 461.963 C 50.505 451.685,43.126 441.226,41.552 430.800 C 40.732 425.362,40.556 53.920,41.372 50.005 C 42.373 45.204,45.392 42.162,50.089 41.219 C 53.795 40.474,230.393 40.961,236.800 41.733 M92.695 77.187 C 85.601 78.135,79.617 82.856,77.076 89.507 L 76.200 91.800 76.089 252.600 C 76.024 347.544,76.128 414.654,76.343 416.462 C 77.263 424.199,84.852 432.123,92.755 433.598 C 95.554 434.120,126.230 434.119,129.451 433.596 C 136.221 432.497,141.957 427.582,144.315 420.859 C 144.903 419.183,144.989 413.055,145.184 358.600 L 145.400 298.200 146.528 296.058 C 151.064 287.444,153.935 286.803,187.973 286.791 C 232.287 286.776,237.036 286.329,251.127 280.842 C 255.017 279.327,260.900 277.236,264.200 276.195 C 271.401 273.923,273.817 272.757,277.447 269.798 C 278.961 268.565,282.631 265.694,285.601 263.419 C 293.228 257.580,300.015 250.490,304.551 243.626 C 306.503 240.671,309.332 236.731,310.836 234.872 C 314.540 230.293,315.487 227.806,318.983 213.491 C 326.525 182.605,326.521 182.475,317.334 144.800 C 315.243 136.224,313.197 132.047,308.030 125.800 C 306.938 124.480,305.000 121.530,303.723 119.244 C 301.748 115.710,300.864 114.602,297.820 111.844 C 295.852 110.060,293.423 107.700,292.423 106.600 C 287.559 101.247,284.884 98.902,281.451 96.985 C 279.500 95.894,276.350 93.709,274.451 92.128 C 269.953 88.382,267.715 87.055,263.131 85.417 C 258.076 83.610,239.766 79.482,229.000 77.722 C 224.646 77.010,97.744 76.512,92.695 77.187 M235.000 83.720 C 257.864 86.674,261.342 87.736,270.200 94.472 C 272.620 96.312,276.220 98.658,278.200 99.684 C 283.134 102.240,284.174 103.078,287.411 107.103 C 288.957 109.025,291.387 111.498,292.811 112.599 C 296.983 115.823,298.627 117.796,300.984 122.403 C 302.199 124.779,304.647 128.675,306.424 131.062 C 312.509 139.233,313.558 142.211,316.189 158.800 C 319.475 179.518,319.470 185.155,316.142 207.000 C 313.967 221.278,312.166 226.503,307.480 232.131 C 305.863 234.072,303.474 237.568,302.170 239.899 C 298.982 245.599,288.420 256.656,282.399 260.598 C 280.309 261.967,276.889 264.577,274.799 266.398 C 270.001 270.581,268.937 271.059,257.991 273.950 C 253.046 275.257,246.626 277.055,243.725 277.946 C 231.328 281.754,228.105 282.020,191.600 282.242 C 165.810 282.399,160.528 282.527,158.000 283.058 C 150.211 284.692,143.285 289.377,141.010 294.550 C 139.173 298.728,139.170 298.819,139.206 359.714 C 139.243 423.551,139.396 419.702,136.673 423.282 C 133.017 428.091,130.998 428.469,109.740 428.320 L 92.600 428.200 90.106 427.048 C 85.747 425.035,82.795 421.129,82.020 416.348 C 81.357 412.263,81.475 96.999,82.140 93.562 C 83.231 87.930,87.373 83.735,92.768 82.795 C 93.776 82.620,124.300 82.512,160.600 82.556 L 226.600 82.635 235.000 83.720 M158.877 134.808 C 147.300 136.407,141.674 141.624,140.772 151.600 C 140.010 160.037,140.491 214.091,141.354 217.000 C 143.910 225.605,149.476 231.880,156.516 234.093 C 159.399 235.000,159.409 235.000,187.600 235.000 C 222.276 235.000,224.289 234.764,233.142 229.656 C 235.044 228.559,239.120 226.468,242.200 225.009 C 248.354 222.096,249.661 221.066,253.124 216.400 C 254.349 214.750,256.649 211.933,258.235 210.140 C 264.099 203.512,265.608 197.862,265.592 182.600 C 265.573 165.337,263.803 161.011,251.810 148.923 C 237.584 134.584,238.442 134.791,192.400 134.593 C 175.350 134.520,160.265 134.617,158.877 134.808 M219.160 138.020 C 233.272 138.915,239.349 141.903,250.250 153.307 C 259.151 162.619,261.591 168.324,261.898 180.543 C 262.263 195.042,260.814 200.571,254.873 207.357 C 253.738 208.653,251.739 211.276,250.431 213.186 C 246.547 218.857,245.160 219.856,236.400 223.293 C 219.392 229.965,220.635 229.800,187.400 229.800 L 160.200 229.800 158.000 228.908 C 153.600 227.123,149.259 221.962,147.143 216.000 L 146.220 213.400 146.090 186.600 C 145.920 151.553,146.221 147.604,149.374 143.469 C 151.392 140.824,155.558 138.690,160.000 138.026 C 163.248 137.541,211.527 137.536,219.160 138.020 M189.800 171.069 C 181.246 172.951,177.549 185.785,183.976 191.287 C 186.660 193.584,187.494 193.723,199.600 193.896 C 214.272 194.106,218.783 193.129,222.966 188.838 C 227.833 183.844,220.678 172.949,211.405 171.235 C 209.181 170.824,191.531 170.688,189.800 171.069 M204.910 176.380 C 213.932 176.880,218.400 179.591,218.400 184.566 C 218.400 189.105,214.978 190.200,200.800 190.200 C 186.681 190.200,184.496 189.304,184.912 183.686 C 185.405 177.012,189.475 175.525,204.910 176.380 " stroke="none" fill="#b6cefc" fill-rule="evenodd"></path><path id="path3" d="M50.937 42.817 C 47.288 43.539,45.050 45.285,43.520 48.605 L 42.600 50.600 42.479 234.600 C 42.394 364.295,42.486 420.253,42.792 424.200 C 43.608 434.722,44.580 437.392,50.442 445.214 C 56.333 453.072,57.035 453.822,62.580 458.163 C 76.260 468.871,73.436 468.402,124.200 468.393 C 172.117 468.384,173.334 468.221,176.480 461.395 L 177.400 459.400 177.624 394.800 C 177.869 323.791,177.731 327.578,180.244 323.289 C 183.283 318.104,184.116 317.953,211.800 317.583 C 249.626 317.078,255.795 316.144,270.600 308.682 C 273.900 307.018,278.490 304.997,280.800 304.190 C 283.110 303.383,286.260 302.123,287.800 301.390 C 290.420 300.143,291.730 299.227,299.847 292.968 C 301.581 291.631,304.710 289.398,306.800 288.006 C 308.983 286.552,311.707 284.276,313.200 282.657 C 314.630 281.107,318.410 277.211,321.600 273.999 C 327.041 268.521,327.635 267.766,331.198 261.800 C 333.287 258.302,336.319 253.721,337.936 251.620 C 341.723 246.700,342.836 244.452,344.816 237.718 C 347.122 229.878,349.007 224.520,351.401 219.000 C 360.737 197.482,360.651 167.533,351.192 145.308 C 349.672 141.738,347.781 136.698,346.989 134.108 C 342.262 118.651,341.785 117.562,337.287 111.945 C 335.589 109.825,333.034 105.975,331.609 103.389 C 329.606 99.753,328.200 97.817,325.406 94.844 C 323.420 92.730,320.781 89.830,319.544 88.400 C 316.481 84.862,315.833 84.220,308.827 77.801 C 301.995 71.540,302.202 71.697,296.400 68.373 C 294.090 67.049,290.760 64.705,289.000 63.164 C 285.102 59.751,282.065 58.242,274.200 55.809 C 265.484 53.112,263.918 52.539,258.600 50.103 C 247.842 45.175,241.339 43.682,226.800 42.805 C 218.789 42.322,53.384 42.333,50.937 42.817 M218.650 46.388 C 231.877 46.923,237.759 48.124,246.904 52.159 C 253.686 55.151,257.686 56.498,264.200 57.981 C 274.647 60.361,278.853 62.191,284.713 66.904 C 287.132 68.850,290.059 70.700,293.113 72.215 C 297.420 74.352,298.111 74.859,301.638 78.474 C 303.749 80.638,307.079 83.638,309.038 85.140 C 311.592 87.098,313.410 88.937,315.463 91.636 C 317.037 93.706,320.045 97.068,322.146 99.108 C 325.752 102.607,326.113 103.112,328.572 108.108 C 330.157 111.328,332.353 114.966,334.181 117.400 C 338.962 123.764,340.353 127.048,342.654 137.399 C 344.440 145.439,345.450 148.634,348.380 155.511 C 356.016 173.430,356.233 192.227,348.988 208.000 C 346.147 214.186,344.192 220.295,341.811 230.428 C 339.659 239.589,338.663 241.904,335.048 246.159 C 332.496 249.162,331.070 251.361,327.879 257.218 C 325.420 261.732,323.253 264.239,310.836 276.942 C 305.589 282.309,303.708 283.848,297.200 288.093 C 294.670 289.744,291.160 292.374,289.400 293.937 C 285.439 297.457,282.977 298.679,275.615 300.778 C 269.026 302.657,264.272 304.478,258.800 307.218 C 248.591 312.332,242.255 313.137,208.800 313.575 C 188.928 313.835,185.934 313.955,184.000 314.569 C 178.065 316.455,174.660 320.313,173.162 326.850 C 172.787 328.482,172.612 344.471,172.434 393.200 C 172.179 463.099,172.311 459.286,170.096 461.082 C 166.055 464.360,164.450 464.498,128.200 464.691 C 82.831 464.933,79.916 464.629,72.789 458.904 C 71.145 457.584,68.180 455.470,66.200 454.206 C 61.461 451.182,59.982 449.715,57.315 445.400 C 56.091 443.420,54.016 440.450,52.703 438.800 C 49.679 434.998,48.566 432.793,47.484 428.463 L 46.620 425.000 46.506 239.055 C 46.431 114.546,46.527 52.614,46.798 51.607 C 47.624 48.540,49.617 47.004,53.510 46.433 C 56.610 45.979,207.511 45.938,218.650 46.388 M86.980 68.579 C 75.694 70.651,71.560 74.199,68.688 84.282 L 67.800 87.400 67.690 253.400 C 67.567 437.881,67.337 422.168,70.244 427.978 C 72.999 433.485,79.671 439.333,85.728 441.549 L 88.600 442.600 111.400 442.600 C 133.491 442.600,134.300 442.573,137.403 441.738 C 147.128 439.120,150.643 435.235,153.268 424.200 C 153.620 422.722,153.804 406.271,153.972 361.200 C 154.191 302.656,154.230 300.144,154.947 298.800 C 156.326 296.215,157.883 294.944,160.977 293.879 C 161.776 293.604,175.168 293.362,199.600 293.183 C 223.151 293.010,238.371 292.741,240.702 292.457 C 250.104 291.312,255.327 289.645,261.346 285.870 C 265.879 283.028,268.794 281.656,273.800 280.009 C 280.001 277.969,283.909 275.560,289.418 270.383 C 291.497 268.429,294.975 265.485,297.147 263.840 C 301.384 260.631,303.312 258.549,306.997 253.200 C 308.286 251.330,310.807 248.000,312.600 245.800 C 318.389 238.695,319.091 237.380,322.092 228.000 C 322.972 225.250,325.010 220.010,326.620 216.356 C 332.052 204.032,332.969 199.140,332.987 182.400 C 333.005 166.076,332.063 160.820,327.271 150.532 C 325.950 147.696,323.613 141.450,322.046 136.571 C 319.152 127.558,317.613 124.368,315.017 122.000 C 313.236 120.376,310.252 116.417,308.382 113.200 C 305.755 108.679,291.951 94.949,287.129 92.061 C 285.220 90.917,282.087 88.546,280.167 86.792 C 275.410 82.447,274.551 82.010,263.694 78.416 C 258.472 76.687,252.175 74.356,249.701 73.236 C 244.555 70.905,241.161 69.895,235.200 68.921 C 229.591 68.004,91.842 67.687,86.980 68.579 M231.800 75.107 C 234.220 75.574,238.180 76.486,240.600 77.131 C 243.020 77.777,248.780 79.304,253.400 80.524 C 267.607 84.276,270.100 85.350,275.662 90.115 C 277.552 91.735,280.967 94.200,283.250 95.593 C 286.244 97.419,288.180 98.966,290.200 101.146 C 291.740 102.808,294.252 105.345,295.783 106.784 C 301.619 112.270,302.714 113.542,305.317 117.863 C 306.791 120.309,308.769 123.185,309.714 124.255 C 315.054 130.304,316.462 133.362,319.815 146.200 C 320.619 149.280,321.961 153.960,322.797 156.600 C 329.251 176.983,328.978 186.807,321.199 214.200 C 316.617 230.337,315.686 232.616,311.557 237.800 C 309.980 239.780,307.474 243.211,305.987 245.424 C 300.016 254.313,297.775 256.590,284.800 266.957 C 275.860 274.099,274.627 274.824,267.044 277.391 C 263.988 278.425,258.498 280.585,254.844 282.191 C 240.741 288.386,240.519 288.410,195.000 288.782 C 168.474 288.998,159.820 289.187,158.600 289.577 C 154.873 290.770,151.829 292.804,150.312 295.114 C 148.074 298.522,148.216 294.554,148.000 359.800 L 147.800 420.200 146.905 422.833 C 144.913 428.690,140.521 433.117,134.200 435.638 C 131.017 436.908,95.270 437.375,90.693 436.206 C 83.520 434.376,75.245 425.994,73.754 419.050 C 72.899 415.066,72.956 94.818,73.813 90.726 C 75.572 82.323,81.377 76.435,89.717 74.595 C 94.496 73.541,226.152 74.015,231.800 75.107 M165.200 139.579 C 153.596 140.209,150.139 143.247,149.202 153.638 C 148.688 159.347,148.696 209.091,149.211 212.400 C 150.046 217.754,153.973 223.554,158.122 225.562 C 161.158 227.032,163.926 227.196,185.600 227.189 C 214.608 227.179,219.734 226.650,232.566 222.343 C 243.029 218.831,245.085 217.497,248.690 211.880 C 249.707 210.296,251.886 207.290,253.531 205.200 C 257.169 200.581,258.112 198.600,259.177 193.337 C 260.201 188.283,260.319 177.769,259.400 173.435 C 256.808 161.200,240.299 144.086,228.116 141.006 C 222.820 139.667,181.049 138.720,165.200 139.579 M212.800 143.995 C 223.814 144.635,226.495 145.357,232.241 149.230 C 233.804 150.283,236.615 152.050,238.488 153.157 C 242.796 155.701,245.077 157.918,246.995 161.426 C 247.830 162.952,249.549 166.000,250.816 168.200 C 256.163 177.488,256.250 188.419,251.051 197.800 C 244.154 210.247,241.103 214.012,236.517 215.742 C 226.020 219.702,218.870 220.381,187.573 220.392 C 151.499 220.404,154.396 223.559,154.407 184.280 C 154.416 149.895,154.736 147.515,159.694 144.952 C 162.184 143.664,196.476 143.046,212.800 143.995 M185.600 163.911 C 171.351 167.714,168.458 190.623,181.195 198.796 C 187.930 203.119,210.384 203.202,220.742 198.943 C 235.382 192.923,238.353 187.703,233.116 177.200 C 229.977 170.904,224.215 166.122,217.386 164.144 C 213.732 163.085,189.363 162.907,185.600 163.911 M215.526 169.483 C 222.021 172.109,229.106 181.462,228.223 186.243 C 227.320 191.133,218.893 195.327,208.600 196.011 C 191.844 197.124,185.045 196.073,181.272 191.787 C 175.573 185.313,179.086 172.033,187.259 169.150 C 190.633 167.960,212.392 168.216,215.526 169.483 " stroke="none" fill="#8cb4fc" fill-rule="evenodd"></path><path id="path4" d="" stroke="none" fill="#100fcfc" fill-rule="evenodd"></path></g></svg>