<svg width="100" height="133" xmlns="http://www.w3.org/2000/svg" xmlns:xlink="http://www.w3.org/1999/xlink"><defs><path d="M54.511 57.912H32.707V29.737h21.804c4.211 0 7.745 1.306 10.602 3.918 2.857 2.611 4.285 5.976 4.285 10.094 0 4.219-1.428 7.634-4.285 10.246-2.857 2.611-6.391 3.917-10.602 3.917zm-11.804-10h11.804c1.77 0 2.886-.413 3.854-1.297.732-.67 1.033-1.389 1.033-2.866 0-1.358-.285-2.03-1.033-2.714-.969-.886-2.085-1.298-3.854-1.298H42.707v8.175z" id="a"/></defs><g fill="#3686FF" fill-rule="evenodd"><path d="M42.707 86.444V133H13c-7.18 0-13-5.82-13-13V0h56.617c11.981 0 22.437 4.323 30.789 12.756C95.735 21.167 100 31.634 100 43.599c0 12.001-4.27 22.395-12.63 30.576-8.311 8.132-18.75 12.269-30.753 12.269h-13.91zM56.617 10H10v110a3 3 0 0 0 3 3h19.707V76.444h23.91c9.423 0 17.343-3.139 23.759-9.417C86.792 60.75 90 52.94 90 43.599c0-9.342-3.233-17.277-9.699-23.806C73.835 13.264 65.94 10 56.617 10z"/><use fill-rule="nonzero" xlink:href="#a"/></g></svg>